<?xml version="1.0" encoding="utf-8"?>
<!-- Generator: Adobe Illustrator 22.0.1, SVG Export Plug-In . SVG Version: 6.00 Build 0)  -->
<svg version="1.1" id="Vrstva_1" xmlns="http://www.w3.org/2000/svg" xmlns:xlink="http://www.w3.org/1999/xlink" x="0px" y="0px"
	 viewBox="0 0 60 30" style="enable-background:new 0 0 60 30;" xml:space="preserve">
<style type="text/css">
	.st0{fill:#03F7EB;}
</style>
<polygon class="st0" points="28.2,16.8 26.2,11.2 19.9,27 35.3,27 36.6,23.6 25.5,23.6 "/>
<polygon class="st0" points="32.8,5.2 28.5,5.2 27.9,6.7 29.9,12.5 "/>
<polygon class="st0" points="26.1,2.1 22.6,2.1 25.6,10 27.3,5.6 "/>
<path class="st0" d="M31.1,22.6h2.9l7.5-20.4H38l-3.9,11c-0.5,1.3-0.8,2.2-0.9,2.7c-0.1,0.4-0.4,1.2-0.7,2.2h-0.1
	c-0.3-1-0.6-1.7-0.7-2.2c-0.1-0.4-0.4-1.3-0.9-2.7l0,0l-1.7,4.3L31.1,22.6z"/>
<polygon class="st0" points="29.9,12.5 27.9,6.7 26.2,11.2 28.2,16.8 "/>
<path class="st0" d="M0,13.5l15.2-7.4v4.2L4,15.4v0.1l11.2,5.2v4.2L0,17.5V13.5z"/>
<path class="st0" d="M60,17.5l-15.2,7.4v-4.2L56,15.5v-0.1l-11.2-5.2V6.1L60,13.5V17.5z"/>
</svg>
